<?xml version="1.0" encoding="utf-8"?>
<!-- Generator: Adobe Illustrator 23.0.3, SVG Export Plug-In . SVG Version: 6.00 Build 0)  -->
<svg version="1.1" id="Layer_1" xmlns="http://www.w3.org/2000/svg" xmlns:xlink="http://www.w3.org/1999/xlink" x="0px" y="0px"
	 viewBox="0 0 84.5 84.5" style="enable-background:new 0 0 84.5 84.5;" xml:space="preserve">
<style type="text/css">
	.st0{fill:#00D66C;}
</style>
<path class="st0" d="M42.2,0C19,0,0,19,0,42.2s19,42.2,42.2,42.2c23.3,0,42.3-19,42.3-42.2S65.5,0,42.2,0z M42.2,5
	c20.5,0,37.3,16.7,37.3,37.2c0,8.3-2.7,16-7.3,22.2c-1.2-1-3.2-2-6.8-2.7c-7.7-1.4-14.3-3-15.3-3.2c-0.8-2-0.8-4.1-0.7-5.5
	c3.3-2,4.7-6.4,5.3-8.9c0.3,0,0.7-0.2,1.1-0.4c1.2-0.8,2-1.5,2.3-4.4c0.3-2.5,0-4-0.9-4.5c-0.4-0.2-0.8-0.2-1.2-0.2
	c0-0.5,2-3.2,2.2-4.6c0.3-1.8-0.3-4.3-0.8-5.6c-0.3-0.8-0.6-1.5-0.6-2.2c-0.2-1.7-1.2-2-3-2.7c-0.7-0.2-1.6-2.6-2.7-3.1
	c-2.1-1-2.7-0.9-3.8-0.7c-0.7,0.1-1.7,0.3-3.9,0.1c-5-0.5-8.7-1.8-8.8-1.8L34.3,15c0,0,0.1,0,0.2,0.1c0.1,0.4,0.4,1.2,1,1.8
	c-1,0-2.4,0.2-3.7,0.9c-2.1,1.3-2.6,2.2-2.7,3c0,0,0,0,0,0c-0.1,0-0.1,0.1-0.2,0.1c-0.8,0.4-2.4,1.2-2.3,3.4c0,0.7-0.1,1.5-0.1,2.2
	c-0.2,1.7-0.4,3.5,0.8,5.2c0.4,0.5,1.5,2.4,1.5,2.9c-0.4-0.1-0.8,0-1.2,0.2c-1,0.6-1.3,2.1-0.9,4.5c0.4,2.9,1.2,3.7,2.3,4.4
	c0.4,0.2,0.7,0.3,1.1,0.4c0.6,2.5,2,6.7,5,8.7c0.1,1.4,0.1,3.6-0.7,5.7c-1,0.2-7.6,1.8-15.3,3.2c-3.6,0.7-5.6,1.7-6.8,2.6
	C7.7,58.2,5,50.5,5,42.3C5,21.7,21.7,5,42.2,5z"/>
</svg>
